<svg width="43" height="64" viewBox="0 0 43 64" fill="none" xmlns="http://www.w3.org/2000/svg">
<path d="M10.5198 63.8066C16.3158 63.8066 21.0198 59.1092 21.0198 53.3212V42.8358H10.5198C4.72377 42.8358 0.0197754 47.5333 0.0197754 53.3212C0.0197754 59.1092 4.72377 63.8066 10.5198 63.8066Z" fill="#0ACF83"/>
<path d="M0.0197754 32.3503C0.0197754 26.5623 4.72377 21.8649 10.5198 21.8649H21.0198V42.8357H10.5198C4.72377 42.8357 0.0197754 38.1382 0.0197754 32.3503Z" fill="#A259FF"/>
<path d="M0.0197754 11.3795C0.0197754 5.59151 4.72377 0.894043 10.5198 0.894043H21.0198V21.8649H10.5198C4.72377 21.8649 0.0197754 17.1674 0.0197754 11.3795Z" fill="#F24E1E"/>
<path d="M21.0198 0.894043H31.5198C37.3158 0.894043 42.0198 5.59151 42.0198 11.3795C42.0198 17.1674 37.3158 21.8649 31.5198 21.8649H21.0198V0.894043Z" fill="#FF7262"/>
<path d="M42.0198 32.3503C42.0198 38.1382 37.3158 42.8357 31.5198 42.8357C25.7238 42.8357 21.0198 38.1382 21.0198 32.3503C21.0198 26.5623 25.7238 21.8649 31.5198 21.8649C37.3158 21.8649 42.0198 26.5623 42.0198 32.3503Z" fill="#1ABCFE"/>
</svg>
