<svg width="64" height="63" viewBox="0 0 64 63" fill="none" xmlns="http://www.w3.org/2000/svg">
<path d="M32.0001 0C14.3292 0 0 14.3068 0 31.9557C0 46.0749 9.16899 58.0531 21.8837 62.2787C23.4829 62.5744 24.0702 61.5854 24.0702 60.7413C24.0702 59.9794 24.0403 57.4619 24.0268 54.7918C15.124 56.7248 13.2455 51.0214 13.2455 51.0214C11.7899 47.3277 9.69252 46.3458 9.69252 46.3458C6.78928 44.3623 9.91137 44.4029 9.91137 44.4029C13.1248 44.6285 14.8169 47.6961 14.8169 47.6961C17.6709 52.5815 22.3028 51.169 24.1289 50.3527C24.416 48.2871 25.2455 46.8776 26.1605 46.0796C19.053 45.2714 11.5811 42.5313 11.5811 30.2868C11.5811 26.7982 12.8312 23.9473 14.8783 21.7095C14.5461 20.9045 13.4508 17.6544 15.1883 13.2527C15.1883 13.2527 17.8754 12.3938 23.9906 16.5284C26.543 15.8201 29.2806 15.4652 32.0001 15.4532C34.7197 15.4652 37.4593 15.8201 40.0167 16.5284C46.1246 12.3938 48.8079 13.2527 48.8079 13.2527C50.5497 17.6544 49.4539 20.9045 49.1217 21.7095C51.1733 23.9473 52.4149 26.7979 52.4149 30.2868C52.4149 42.5604 44.9289 45.2631 37.8033 46.054C38.951 47.0458 39.9737 48.9906 39.9737 51.9718C39.9737 56.2474 39.9366 59.6887 39.9366 60.7413C39.9366 61.5917 40.5126 62.5882 42.1349 62.2744C54.8425 58.0441 64 46.0701 64 31.9557C64 14.3068 49.6728 0 32.0001 0Z" fill="black"/>
<path d="M11.9851 45.5217C11.9149 45.6804 11.6644 45.728 11.4368 45.6192C11.2046 45.515 11.0741 45.2984 11.1494 45.139C11.2184 44.9756 11.4689 44.93 11.7005 45.0398C11.9332 45.1438 12.0657 45.3623 11.9851 45.5217V45.5217ZM13.5592 46.9242C13.4066 47.0656 13.1082 46.9999 12.9057 46.7766C12.6964 46.5538 12.6572 46.2561 12.8121 46.1125C12.9694 45.9714 13.2588 46.0373 13.4686 46.2603C13.6779 46.4856 13.7186 46.7816 13.559 46.9245L13.5592 46.9242ZM14.6392 48.7187C14.4429 48.8548 14.1222 48.7272 13.9241 48.443C13.7281 48.1591 13.7281 47.8182 13.9284 47.6816C14.1272 47.545 14.4429 47.6678 14.6437 47.9498C14.8394 48.2388 14.8394 48.5796 14.6389 48.7189L14.6392 48.7187ZM16.4652 50.7971C16.2898 50.9901 15.9164 50.9385 15.6428 50.6748C15.3632 50.4172 15.2852 50.0515 15.4611 49.8583C15.6385 49.6648 16.0142 49.7192 16.2898 49.9806C16.5676 50.2377 16.6525 50.6061 16.4655 50.7971H16.4652ZM18.8254 51.4989C18.7483 51.749 18.3884 51.8628 18.026 51.7565C17.6641 51.647 17.4272 51.3538 17.5002 51.1009C17.5755 50.849 17.9369 50.7305 18.3021 50.8442C18.6635 50.9533 18.9009 51.2442 18.8256 51.4989H18.8254ZM21.5118 51.7964C21.5208 52.06 21.2134 52.2786 20.8329 52.2833C20.4502 52.2916 20.1407 52.0783 20.1367 51.8192C20.1367 51.553 20.4371 51.3365 20.8196 51.3302C21.2001 51.3227 21.5118 51.5345 21.5118 51.7964V51.7964ZM24.1505 51.6954C24.1962 51.9525 23.9317 52.2166 23.5539 52.2868C23.1825 52.3545 22.8387 52.1958 22.7912 51.941C22.7451 51.6773 23.0146 51.4134 23.3853 51.345C23.7638 51.2793 24.1023 51.434 24.1505 51.6954" fill="black"/>
</svg>
