<svg width="57" height="63" viewBox="0 0 57 63" fill="none" xmlns="http://www.w3.org/2000/svg">
<path d="M25.9282 0.669196C27.4857 -0.221054 29.5143 -0.225075 31.0704 0.669196C38.8992 5.08671 46.7304 9.4973 54.5578 13.9175C56.03 14.7456 57.0148 16.3818 56.9998 18.0759V44.6533C57.0108 46.4175 55.9287 48.0928 54.3755 48.9022C46.5725 53.2953 38.7735 57.6939 30.9718 62.087C29.3821 62.9947 27.3128 62.9248 25.7728 61.9427C23.4334 60.5885 21.09 59.2409 18.7505 57.888C18.2724 57.6034 17.7335 57.3769 17.3959 56.914C17.6943 56.5123 18.2279 56.4623 18.6614 56.2869C19.6379 55.9768 20.5348 55.4791 21.4319 54.9961C21.6587 54.841 21.9357 54.9005 22.1531 55.0392C24.1535 56.1846 26.1363 57.3632 28.1434 58.4977C28.5716 58.7445 29.0052 58.4168 29.3711 58.213C37.0283 53.8914 44.6949 49.586 52.3507 45.263C52.6343 45.1267 52.7912 44.826 52.7681 44.5157C52.7735 35.7484 52.7695 26.9795 52.7708 18.2121C52.8032 17.8601 52.5992 17.5364 52.2804 17.3923C44.5045 13.0192 36.7326 8.63944 28.9579 4.26527C28.8232 4.17279 28.6637 4.12317 28.5002 4.12293C28.3368 4.12269 28.177 4.17185 28.0421 4.26393C20.2675 8.63944 12.4969 13.0232 4.72227 17.3961C4.4046 17.5404 4.19141 17.8587 4.22922 18.2121C4.23056 26.9795 4.22922 35.7484 4.22922 44.5171C4.21573 44.6685 4.24903 44.8203 4.32463 44.9523C4.40022 45.0842 4.51449 45.1898 4.65203 45.2549C6.72672 46.4298 8.80409 47.5964 10.8801 48.7672C12.0497 49.3959 13.4857 49.7694 14.7743 49.2878C15.9114 48.8805 16.7085 47.7217 16.6868 46.516C16.6975 37.7999 16.6814 29.0823 16.6948 20.3675C16.6664 19.9806 17.034 19.6609 17.4107 19.6973C18.4075 19.6906 19.4057 19.6839 20.4026 19.7C20.8187 19.6906 21.105 20.1072 21.0536 20.4971C21.0496 29.2684 21.0643 38.04 21.0469 46.8114C21.0496 49.149 20.0878 51.6927 17.9225 52.8365C15.255 54.2164 11.958 53.9238 9.32266 52.6006C7.04126 51.4635 4.86411 50.1215 2.6232 48.9033C1.06595 48.0984 -0.0107693 46.4164 0.000192548 44.6536V18.0759C-0.0161383 16.3467 1.00778 14.6809 2.52588 13.8648C10.3276 9.46803 18.1279 5.06794 25.9282 0.669196Z" fill="#8CC84B"/>
<path d="M32.7344 19.0796C36.137 18.8608 39.7797 18.95 42.8416 20.6239C45.2123 21.9067 46.5266 24.5989 46.5684 27.229C46.5022 27.5837 46.1308 27.7794 45.7917 27.7551C44.8044 27.7537 43.817 27.7685 42.8298 27.7484C42.411 27.7645 42.1676 27.3789 42.115 27.0091C41.8313 25.7507 41.1441 24.5044 39.958 23.8974C38.1372 22.987 36.0261 23.0328 34.0406 23.0518C32.5912 23.1287 31.0326 23.254 29.8047 24.1052C28.8619 24.7499 28.5756 26.0514 28.9121 27.0996C29.2293 27.8522 30.0993 28.0951 30.8111 28.3189C34.9117 29.3899 39.2571 29.2834 43.2794 30.6928C44.9447 31.2674 46.5738 32.3844 47.1438 34.1255C47.8894 36.4592 47.5626 39.2486 45.9 41.122C44.5517 42.6637 42.5879 43.5028 40.6293 43.9585C38.0238 44.5387 35.3198 44.5534 32.6737 44.2958C30.1856 44.0126 27.5964 43.3598 25.6756 41.6669C24.0332 40.2427 23.2309 38.0237 23.3106 35.8819C23.3296 35.5202 23.6902 35.268 24.0372 35.2977C25.0314 35.2897 26.0255 35.287 27.0197 35.2991C27.4168 35.2707 27.7112 35.6134 27.7315 35.9871C27.915 37.1861 28.3662 38.4445 29.4132 39.1554C31.4337 40.4572 33.969 40.368 36.2826 40.4044C38.1994 40.3195 40.351 40.2938 41.9152 39.0287C42.7405 38.3072 42.985 37.0999 42.762 36.0613C42.5204 35.1845 41.6018 34.7759 40.813 34.5087C36.765 33.2299 32.3711 33.6939 28.3622 32.2479C26.7347 31.6735 25.1609 30.5876 24.5356 28.9179C23.6631 26.5547 24.0629 23.6318 25.8998 21.8216C27.6908 20.021 30.2762 19.3275 32.7344 19.0793V19.0796Z" fill="#8CC84B"/>
</svg>
