<svg width="71" height="69" viewBox="0 0 71 69" fill="none" xmlns="http://www.w3.org/2000/svg">
<path d="M35.4747 40.4072C38.8244 40.4072 41.5399 37.6955 41.5399 34.3504C41.5399 31.0053 38.8244 28.2936 35.4747 28.2936C32.1249 28.2936 29.4094 31.0053 29.4094 34.3504C29.4094 37.6955 32.1249 40.4072 35.4747 40.4072Z" fill="#61DAFB"/>
<path d="M35.4746 46.7595C53.4488 46.7595 68.0197 41.2037 68.0197 34.3504C68.0197 27.497 53.4488 21.9413 35.4746 21.9413C17.5004 21.9413 2.92944 27.497 2.92944 34.3504C2.92944 41.2037 17.5004 46.7595 35.4746 46.7595Z" stroke="#61DAFB" stroke-width="5"/>
<path d="M24.713 40.5549C33.7001 56.0994 45.8037 65.9229 51.7471 62.4962C57.6905 59.0695 55.2232 43.6903 46.2361 28.1458C37.249 12.6013 25.1454 2.77787 19.202 6.20455C13.2586 9.63122 15.7259 25.0104 24.713 40.5549Z" stroke="#61DAFB" stroke-width="5"/>
<path d="M24.7131 28.1458C15.726 43.6903 13.2586 59.0695 19.202 62.4962C25.1454 65.9228 37.249 56.0994 46.2361 40.5549C55.2232 25.0104 57.6906 9.63119 51.7472 6.20451C45.8037 2.77784 33.7002 12.6013 24.7131 28.1458Z" stroke="#61DAFB" stroke-width="5"/>
</svg>
